<svg xmlns="http://www.w3.org/2000/svg" viewBox="0 0 43.31 37.58"><defs><style>.cls-1{fill:#fff;}</style></defs><g id="Capa_2" data-name="Capa 2"><g id="Capa_1-2" data-name="Capa 1"><path class="cls-1" d="M30.39,26.75l-.21-.13-.05.17a4,4,0,0,1-.36-.17c-.5-.34-1-.69-1.5-1a1.4,1.4,0,0,0-1.94,1.9,1.82,1.82,0,0,0,.54.53c1.09.74,2.21,1.47,3.31,2.21a1.66,1.66,0,0,1,.54,2.24,1.1,1.1,0,0,1-.28.33,58.34,58.34,0,0,1-7,4.32,3.29,3.29,0,0,1-3.32,0L19.72,37A54.21,54.21,0,0,1,13.18,33a1.67,1.67,0,0,1,0-2.8c1.1-.77,2.21-1.51,3.3-2.27A1.4,1.4,0,1,0,15,25.63c-.53.34-1,.71-1.55,1.05a2.09,2.09,0,0,1-.44.16c0,.07-.07.19-.15.24-1.09.76-2.18,1.51-3.28,2.25A1.16,1.16,0,0,1,7.9,27.79a1.34,1.34,0,0,1,.41-.41q3.64-2.52,7.29-5a1.62,1.62,0,0,0,.83-1.11,1.36,1.36,0,0,0-.62-1.39,1.31,1.31,0,0,0-1.51,0c-.76.5-1.51,1-2.26,1.53L6.32,25.32a1.2,1.2,0,1,1-1.35-2l8.6-5.9a1.43,1.43,0,0,0,.71-1.21A1.34,1.34,0,0,0,13.55,15a1.37,1.37,0,0,0-1.49.09L9.31,17,3.7,20.81A1.14,1.14,0,0,1,1.87,20a1.07,1.07,0,0,1,.46-1q.57-.41,1.14-.78a.61.61,0,0,1,.27-.08h.54l-.41-.2,1.82-1.25,2.58-1.77A1.3,1.3,0,0,0,8.66,13a1.31,1.31,0,0,0-2-.42L2.4,15.51a1.48,1.48,0,0,1-1.55.14A1.46,1.46,0,0,1,0,14.3,15.67,15.67,0,0,1,.73,8.41,12.42,12.42,0,0,1,3.41,4c.16-.17.29-.17.4-.07A1.13,1.13,0,0,1,4,3.49,10.46,10.46,0,0,1,8.38.77,12.74,12.74,0,0,1,20.93,2.92c.18.14.31.34.49.49a1.91,1.91,0,0,0,.37.17,2.3,2.3,0,0,1,.34-.49,12.74,12.74,0,0,1,16.35-.21,3.34,3.34,0,0,1,.4.35.5.5,0,0,1,.1.19l.29.26a3.38,3.38,0,0,1,.41.31,12.76,12.76,0,0,1,3.41,6.62,11.77,11.77,0,0,1,.11,3.79,1.41,1.41,0,0,1-1.62,1.36,1.93,1.93,0,0,1-.82-.35c-1.4-.94-2.79-1.9-4.18-2.85a1.32,1.32,0,0,0-1.61,0,1.43,1.43,0,0,0-.54,1.61,1.7,1.7,0,0,0,.53.68c1.92,1.34,3.86,2.65,5.79,4a1.18,1.18,0,0,1,.58,1.47,1.12,1.12,0,0,1-1.71.54c-.88-.59-1.75-1.19-2.61-1.79l-5.78-4a1.39,1.39,0,0,0-2.23,1,1.36,1.36,0,0,0,.65,1.35l4.64,3.18,4,2.76a1.2,1.2,0,1,1-1.35,2c-2.62-1.79-5.24-3.6-7.87-5.39a1.4,1.4,0,1,0-1.59,2.31c2.47,1.71,4.95,3.4,7.43,5.11a1.12,1.12,0,0,1,.54,1.3,1.14,1.14,0,0,1-1.72.69c-1.13-.74-2.23-1.52-3.34-2.28C30.26,27,30.28,26.87,30.39,26.75ZM40.58,12.52a1.85,1.85,0,0,0,0-.24,9.83,9.83,0,0,0-1-3.79A10.16,10.16,0,0,0,28.05,3a10,10,0,0,0-6,4.15c-.33.49-.54.48-.88,0a12.37,12.37,0,0,0-1.35-1.61,10,10,0,0,0-8.92-2.7,9.71,9.71,0,0,0-8,7.73c-.12.61-.16,1.22-.25,1.92L3,12.3l2.44-1.67a3.58,3.58,0,0,1,5,.89,15.24,15.24,0,0,1,.76,1.38,3.74,3.74,0,0,1,5.15,4.67,3.65,3.65,0,0,1,2.3,2.68,3.69,3.69,0,0,1-.95,3.39l.22.17A3.71,3.71,0,0,1,18.75,29a5.94,5.94,0,0,1-1.54,1.33l-1.62,1.11s.05.07.08.08a53.58,53.58,0,0,0,5.47,3.21,1.07,1.07,0,0,0,1.14,0c1.51-.9,3-1.77,4.55-2.66.3-.18.58-.38.89-.59l-.24-.18-2.05-1.41a3.71,3.71,0,0,1-1.29-4.52,3.83,3.83,0,0,1,1.44-1.67,3.74,3.74,0,0,1,1.34-6.08,3.75,3.75,0,0,1,5.22-4.64c0-.08,0-.13.06-.19a3.7,3.7,0,0,1,5.81-2C38.83,11.35,39.69,11.9,40.58,12.52Z"/></g></g></svg>