<svg xmlns="http://www.w3.org/2000/svg" viewBox="0 0 32.21 40.85"><defs><style>.cls-1{fill:#fff;}</style></defs><g id="Capa_2" data-name="Capa 2"><g id="Capa_1-2" data-name="Capa 1"><path class="cls-1" d="M16.91,0a8.65,8.65,0,0,1,3.2,1.78,3.79,3.79,0,0,0,2.07.71,5,5,0,0,1,4.95,4.73,4.75,4.75,0,0,0,1.22,2.94,5.05,5.05,0,0,1-.12,7,4.74,4.74,0,0,0-1.1,2.6c-.19,1-.64,1.92-.92,2.89a1.64,1.64,0,0,0,.05,1.05c1.85,3.8,3.72,7.58,5.59,11.37.68,1.38.43,1.8-1.08,1.81C29.5,36.87,28,36.5,27,37s-1.59,1.9-2.37,2.9c-.26.33-.56.63-.84.94h-.54a9.49,9.49,0,0,1-.85-1.25C20.5,35.74,18.6,31.87,16.69,28c-.13-.28-.31-.55-.56-1-.24.44-.39.69-.52.94-1.32,2.68-2.63,5.36-4,8-.82,1.64-1.69,3.25-2.54,4.87H8.38c-.86-1.12-1.75-2.23-2.56-3.38a1.31,1.31,0,0,0-1.28-.62c-1.09,0-2.17,0-3.26,0s-1.57-.56-1-1.68C2.13,31.37,4,27.55,5.91,23.75a1.32,1.32,0,0,0,0-1.39,8.17,8.17,0,0,1-.81-2.55A5,5,0,0,0,3.8,17a5,5,0,0,1,0-6.77A4.54,4.54,0,0,0,5,7.39a5,5,0,0,1,5.06-4.9,5.63,5.63,0,0,0,2-.71C13.18,1.23,14.22.6,15.28,0ZM28.32,13.5A14.75,14.75,0,0,0,27,11.18,6,6,0,0,1,25.5,7.67C25.31,5.35,24.29,4.3,22,4.1a5.77,5.77,0,0,1-3.64-1.61,3.15,3.15,0,0,0-4.43-.12A6.57,6.57,0,0,1,9.69,4.15a3.17,3.17,0,0,0-3.06,3,6.69,6.69,0,0,1-1.75,4.24,3.15,3.15,0,0,0,.1,4.3,6,6,0,0,1,1.72,4A3.42,3.42,0,0,0,10.2,23a5,5,0,0,1,3.34,1.41,3.33,3.33,0,0,0,4.84.13A5.6,5.6,0,0,1,22,23a3.42,3.42,0,0,0,3.44-3.39,6.24,6.24,0,0,1,1.64-3.83A11.92,11.92,0,0,0,28.32,13.5ZM7.43,24.29,2.09,35.07c1.13,0,2.09,0,3,0a1.57,1.57,0,0,1,1.52.76c.55.82,1.17,1.6,1.83,2.49L13.9,27C12.2,24.86,9.94,24.44,7.43,24.29Zm16.19,14c.63-.86,1.2-1.56,1.69-2.32a1.73,1.73,0,0,1,1.88-.89,18.59,18.59,0,0,0,2.6,0l-5.3-10.67c-2.55.12-4.79.66-6.48,2.64C19.81,30.71,21.67,34.43,23.62,38.31Z"/><path class="cls-1" d="M24.6,13.56A8.57,8.57,0,1,1,16,5,8.51,8.51,0,0,1,24.6,13.56Zm-1.66,0a6.91,6.91,0,1,0-6.66,7A6.86,6.86,0,0,0,22.94,13.56Z"/></g></g></svg>